<mxfile host="app.diagrams.net" modified="2025-10-17T22:36:08Z" agent="Mozilla/5.0" version="22.0.8" type="device">
  <diagram id="dualpath-four-corner" name="Dual-Path Four-Corner Transformation">
    <mxGraphModel dx="1600" dy="900" grid="1" gridSize="10" guides="1" tooltips="1" connect="1" arrows="1" fold="1" page="1" pageScale="1" pageWidth="1920" pageHeight="1080" math="0" shadow="0">
      <root>
        <mxCell id="0"/><mxCell id="1" parent="0"/>
        <mxCell id="title" value="ServiceVision Dual-Path AI & Data Transformation" style="text;html=1;strokeColor=none;fillColor=none;fontSize=24;fontStyle=1;align=center;verticalAlign=middle" vertex="1" parent="1"><mxGeometry x="60" y="10" width="1800" height="40" as="geometry"/></mxCell>
        <mxCell id="quad-bg" value="" style="rounded=1;whiteSpace=wrap;html=1;fillColor=#f5f5f5;strokeColor=#cccccc" vertex="1" parent="1"><mxGeometry x="60" y="70" width="1800" height="820" as="geometry"/></mxCell>
        <mxCell id="future-ui" value="Future UI (Vision)" style="rounded=1;whiteSpace=wrap;html=1;fillColor=#e8f5e9;strokeColor=#66bb6a;fontSize=14" vertex="1" parent="1"><mxGeometry x="80" y="90" width="880" height="380" as="geometry"/></mxCell>
        <mxCell id="current-ui" value="Current UI (Reality)" style="rounded=1;whiteSpace=wrap;html=1;fillColor=#fff3e0;strokeColor=#fb8c00;fontSize=14" vertex="1" parent="1"><mxGeometry x="980" y="90" width="860" height="380" as="geometry"/></mxCell>
        <mxCell id="future-data" value="Future Data &amp; AI (Platform)" style="rounded=1;whiteSpace=wrap;html=1;fillColor=#e3f2fd;strokeColor=#42a5f5;fontSize=14" vertex="1" parent="1"><mxGeometry x="80" y="510" width="880" height="360" as="geometry"/></mxCell>
        <mxCell id="current-data" value="Current Data &amp; Integrations" style="rounded=1;whiteSpace=wrap;html=1;fillColor=#fce4ec;strokeColor=#ec407a;fontSize=14" vertex="1" parent="1"><mxGeometry x="980" y="510" width="860" height="360" as="geometry"/></mxCell>
        <mxCell id="arrow-diag1" value="User-Driven Transformation" style="edgeStyle=orthogonalEdgeStyle;rounded=1;strokeColor=#66bb6a;endArrow=block;endFill=1;fontSize=12" edge="1" parent="1" source="future-ui" target="current-data"><mxGeometry relative="1" as="geometry"/></mxCell>
        <mxCell id="arrow-diag2" value="Data-Driven Transformation" style="edgeStyle=orthogonalEdgeStyle;rounded=1;strokeColor=#42a5f5;endArrow=block;endFill=1;fontSize=12" edge="1" parent="1" source="current-ui" target="future-data"><mxGeometry relative="1" as="geometry"/></mxCell>
        <mxCell id="tiers" value="Tier Bridges" style="swimlane;childLayout=stackLayout;rounded=1;horizontal=0;startSize=40;fillColor=#ffffff;strokeColor=#bdbdbdb;fontStyle=1" vertex="1" parent="1"><mxGeometry x="440" y="330" width="980" height="340" as="geometry"/></mxCell>
        <mxCell id="lane-aifree" value="AI-Free Path (Gray)" style="swimlane;childLayout=stackLayout;rounded=0;horizontal=0;startSize=28;fillColor=#fafafa;strokeColor=#9e9e9e;fontStyle=1" vertex="1" parent="tiers"><mxGeometry x="0" y="40" width="980" height="160" as="geometry"/></mxCell>
        <mxCell id="lane-aiinc" value="AI-Included Path (Blue)" style="swimlane;childLayout=stackLayout;rounded=0;horizontal=0;startSize=28;fillColor=#e8f0fe;strokeColor=#5c6bc0;fontStyle=1" vertex="1" parent="tiers"><mxGeometry x="0" y="200" width="980" height="140" as="geometry"/></mxCell>
        <mxCell id="ui-free" value="UI: Legacy → Component Library → Telemetry + Dashboards" style="text;whiteSpace=wrap;html=1;align=left;verticalAlign=middle;spacingLeft=10" vertex="1" parent="lane-aifree"><mxGeometry x="0" y="28" width="980" height="40" as="geometry"/></mxCell>
        <mxCell id="api-free" value="API: Direct DB → Stored-Proc Endpoints → Gateway + Caching" style="text;whiteSpace=wrap;html=1;align=left;verticalAlign=middle;spacingLeft=10" vertex="1" parent="lane-aifree"><mxGeometry x="0" y="68" width="980" height="40" as="geometry"/></mxCell>
        <mxCell id="data-free" value="Data: Monolith → dbt/ADF + Contracts → Lakehouse (Deterministic)" style="text;whiteSpace=wrap;html=1;align=left;verticalAlign=middle;spacingLeft=10" vertex="1" parent="lane-aifree"><mxGeometry x="0" y="108" width="980" height="40" as="geometry"/></mxCell>
        <mxCell id="cloud-free" value="Cloud: Manual → IaC + Autoscale → Policy-as-Code + DR Drills" style="text;whiteSpace=wrap;html=1;align=left;verticalAlign=middle;spacingLeft=10" vertex="1" parent="lane-aifree"><mxGeometry x="0" y="148" width="980" height="40" as="geometry"/></mxCell>
        <mxCell id="ui-ai" value="UI: Conversational/Recommendations → AI-Personalization" style="text;whiteSpace=wrap;html=1;align=left;verticalAlign=middle;spacingLeft=10" vertex="1" parent="lane-aiinc"><mxGeometry x="0" y="28" width="980" height="36" as="geometry"/></mxCell>
        <mxCell id="api-ai" value="API: Event-Driven Orchestration → Semantic Routing to AI Services" style="text;whiteSpace=wrap;html=1;align=left;verticalAlign=middle;spacingLeft=10" vertex="1" parent="lane-aiinc"><mxGeometry x="0" y="64" width="980" height="36" as="geometry"/></mxCell>
        <mxCell id="data-ai" value="Data: Embeddings/Vector Search → Feature Store + ML Ops + Evals" style="text;whiteSpace=wrap;html=1;align=left;verticalAlign=middle;spacingLeft=10" vertex="1" parent="lane-aiinc"><mxGeometry x="0" y="100" width="980" height="36" as="geometry"/></mxCell>
        <mxCell id="cloud-ai" value="Cloud: Predictive Scaling → Anomaly Detection + FinOps AI" style="text;whiteSpace=wrap;html=1;align=left;verticalAlign=middle;spacingLeft=10" vertex="1" parent="lane-aiinc"><mxGeometry x="0" y="136" width="980" height="36" as="geometry"/></mxCell>
        <mxCell id="legend" value="Legend: Gray=AI-Free | Blue=AI-Included | Diagonals: User/Data-Driven | Center: Tier Bridges" style="rounded=1;whiteSpace=wrap;html=1;fillColor=#ffffff;strokeColor=#9e9e9e;fontSize=12" vertex="1" parent="1"><mxGeometry x="80" y="880" width="1760" height="60" as="geometry"/></mxCell>
      </root>
    </mxGraphModel>
  </diagram>
</mxfile>
